<?xml version="1.0" standalone="no"?>
<!DOCTYPE svg PUBLIC "-//W3C//DTD SVG 20010904//EN"
 "http://www.w3.org/TR/2001/REC-SVG-20010904/DTD/svg10.dtd">
<svg version="1.0" xmlns="http://www.w3.org/2000/svg"
 width="742.000000pt" height="245.000000pt" viewBox="0 0 742.000000 245.000000"
 preserveAspectRatio="xMidYMid meet">

<g transform="translate(0.000000,245.000000) scale(0.100000,-0.100000)"
fill="#000000" stroke="none">
<path d="M122 2281 c8 -23 1054 -1901 1058 -1901 4 0 1050 1878 1058 1901 2 5
-71 9 -180 9 l-183 0 -344 -635 c-189 -349 -347 -635 -351 -635 -4 0 -162 286
-351 635 l-344 635 -183 0 c-109 0 -182 -4 -180 -9z"/>
<path d="M602 2281 c10 -29 573 -1051 578 -1051 6 0 580 1044 580 1055 0 3
-71 4 -157 3 l-157 -3 -130 -238 c-71 -130 -134 -236 -138 -235 -5 2 -66 109
-136 238 l-128 235 -158 3 c-94 1 -156 -1 -154 -7z"/>
<path d="M2810 2253 c0 -44 147 -1694 151 -1698 2 -2 158 -46 346 -98 l343
-95 342 94 c188 53 344 97 346 99 4 3 152 1664 152 1703 l0 22 -840 0 -840 0
0 -27z m1365 -425 c-4 -57 -9 -106 -12 -110 -2 -5 -186 -8 -409 -8 -381 0
-405 -1 -400 -17 2 -10 7 -57 11 -105 l7 -88 384 0 384 0 0 -27 c0 -59 -53
-618 -59 -624 -10 -10 -410 -119 -434 -119 -12 1 -114 27 -227 58 l-205 58
-12 124 c-6 69 -13 146 -16 173 l-4 47 107 0 107 0 7 -46 c3 -26 6 -66 6 -89
l0 -42 120 -32 120 -32 103 27 c56 15 109 30 118 35 12 6 18 31 23 106 4 54 9
113 12 130 l6 33 -368 2 -369 3 -27 280 c-15 154 -27 299 -27 323 l-1 42 531
0 532 0 -8 -102z"/>
<path d="M5316 2043 c-15 -82 -30 -160 -33 -175 l-5 -28 721 0 c710 0 721 0
721 -20 0 -10 -10 -64 -21 -120 l-22 -100 -723 0 -724 0 -5 -22 c-6 -28 -65
-320 -65 -325 0 -1 327 -3 726 -3 686 0 725 -1 720 -17 -3 -10 -21 -102 -42
-205 l-37 -187 -290 -97 -291 -97 -45 17 c-25 9 -141 53 -257 97 l-211 80 17
85 17 84 -176 0 -176 0 -42 -207 c-22 -115 -39 -210 -38 -212 7 -6 810 -312
825 -313 8 -1 230 69 492 155 358 118 478 161 482 175 3 9 73 361 156 782 83
421 153 773 156 783 5 16 -42 17 -899 17 l-903 0 -28 -147z"/>
</g>
</svg>
