<?xml version="1.0" standalone="no"?>
<!DOCTYPE svg PUBLIC "-//W3C//DTD SVG 20010904//EN"
 "http://www.w3.org/TR/2001/REC-SVG-20010904/DTD/svg10.dtd">
<svg version="1.0" xmlns="http://www.w3.org/2000/svg"
 width="685.000000pt" height="233.000000pt" viewBox="0 0 685.000000 233.000000"
 preserveAspectRatio="xMidYMid meet">

<g transform="translate(0.000000,233.000000) scale(0.100000,-0.100000)"
fill="#000000" stroke="none">
<path d="M220 1170 l0 -960 960 0 960 0 0 960 0 960 -960 0 -960 0 0 -960z
m1605 59 c29 -15 64 -44 83 -69 l33 -43 -73 -48 -73 -49 -14 24 c-64 106 -228
42 -170 -66 6 -11 63 -44 133 -77 67 -32 139 -73 161 -92 121 -106 112 -308
-18 -396 -90 -60 -252 -69 -361 -20 -60 28 -130 87 -151 127 -14 26 -13 27 58
68 l72 41 42 -43 c24 -25 58 -47 83 -55 83 -25 164 10 176 76 5 28 2 37 -24
61 -17 16 -66 43 -109 61 -187 78 -254 156 -254 293 0 109 55 182 170 225 57
21 175 12 236 -18z m-557 -326 c-3 -338 -4 -349 -26 -398 -43 -94 -103 -134
-215 -142 -110 -8 -175 14 -244 83 -31 31 -53 61 -51 71 3 15 111 91 133 92 6
1 19 -13 30 -29 30 -45 79 -65 125 -51 23 7 41 20 48 36 8 18 12 126 12 355
l0 330 96 0 95 0 -3 -347z"/>
<path d="M2580 2083 c0 -44 147 -1694 151 -1698 2 -2 158 -46 346 -98 l343
-95 342 94 c188 53 344 97 346 99 4 3 152 1664 152 1703 l0 22 -840 0 -840 0
0 -27z m1365 -425 c-4 -57 -9 -106 -12 -110 -2 -5 -186 -8 -409 -8 -381 0
-405 -1 -400 -17 2 -10 7 -57 11 -105 l7 -88 384 0 384 0 0 -27 c0 -59 -53
-618 -59 -624 -10 -10 -410 -119 -434 -119 -12 1 -114 27 -227 58 l-205 58
-12 124 c-6 69 -13 146 -16 173 l-4 47 107 0 107 0 7 -46 c3 -26 6 -66 6 -89
l0 -42 120 -32 120 -32 103 27 c56 15 109 30 118 35 12 6 18 31 23 106 4 54 9
113 12 130 l6 33 -368 2 -369 3 -27 280 c-15 154 -27 299 -27 323 l-1 42 531
0 532 0 -8 -102z"/>
<path d="M4846 1943 c-15 -82 -30 -160 -33 -175 l-5 -28 721 0 c710 0 721 0
721 -20 0 -10 -10 -64 -21 -120 l-22 -100 -723 0 -724 0 -5 -22 c-6 -28 -65
-320 -65 -325 0 -1 327 -3 726 -3 686 0 725 -1 720 -17 -3 -10 -21 -102 -42
-205 l-37 -187 -290 -97 -291 -97 -45 17 c-25 9 -141 53 -257 97 l-211 80 17
85 17 84 -176 0 -176 0 -42 -207 c-22 -115 -39 -210 -38 -212 7 -6 810 -312
825 -313 8 -1 230 69 492 155 358 118 478 161 482 175 3 9 73 361 156 782 83
421 153 773 156 783 5 16 -42 17 -899 17 l-903 0 -28 -147z"/>
</g>
</svg>
